<svg width="1248" height="752" viewBox="0 0 1248 752" fill="none" xmlns="http://www.w3.org/2000/svg">
<line x1="99.9609" y1="3.01041e-08" x2="99.9609" y2="752" stroke="white" stroke-opacity="0.07"/>
<line y1="114.832" x2="1248" y2="114.832" stroke="white" stroke-opacity="0.07"/>
<line y1="229.226" x2="1248" y2="229.226" stroke="white" stroke-opacity="0.07"/>
<line y1="343.62" x2="1248" y2="343.62" stroke="white" stroke-opacity="0.07"/>
<line y1="458.014" x2="1248" y2="458.014" stroke="white" stroke-opacity="0.07"/>
<line y1="572.408" x2="1248" y2="572.408" stroke="white" stroke-opacity="0.07"/>
<line y1="686.802" x2="1248" y2="686.802" stroke="white" stroke-opacity="0.07"/>
<line x1="483.293" y1="3.01041e-08" x2="483.293" y2="752" stroke="white" stroke-opacity="0.07"/>
<line x1="866.621" y1="3.01041e-08" x2="866.621" y2="752" stroke="white" stroke-opacity="0.07"/>
<line x1="195.797" y1="3.01041e-08" x2="195.797" y2="752" stroke="white" stroke-opacity="0.07"/>
<line x1="579.125" y1="3.01041e-08" x2="579.125" y2="752" stroke="white" stroke-opacity="0.07"/>
<line x1="962.453" y1="3.01041e-08" x2="962.453" y2="752" stroke="white" stroke-opacity="0.07"/>
<line x1="291.629" y1="3.01041e-08" x2="291.629" y2="752" stroke="white" stroke-opacity="0.07"/>
<line x1="674.957" y1="3.01041e-08" x2="674.957" y2="752" stroke="white" stroke-opacity="0.07"/>
<line x1="1058.29" y1="3.01041e-08" x2="1058.29" y2="752" stroke="white" stroke-opacity="0.07"/>
<line x1="387.461" y1="3.01041e-08" x2="387.461" y2="752" stroke="white" stroke-opacity="0.07"/>
<line x1="770.789" y1="3.01041e-08" x2="770.789" y2="752" stroke="white" stroke-opacity="0.07"/>
<line x1="1154.12" y1="3.01041e-08" x2="1154.12" y2="752" stroke="white" stroke-opacity="0.07"/>
</svg>
