<svg width="21" height="25" viewBox="0 0 21 25" fill="none" xmlns="http://www.w3.org/2000/svg">
<path d="M18.7805 17.5793L15.7443 16.7485C15.3875 16.6496 15.013 16.6305 14.649 16.6924C14.285 16.7544 13.9409 16.8958 13.6426 17.1061L11.0606 18.9249C7.87618 16.6743 5.4994 13.5063 4.27253 9.87688L6.86856 8.04829C7.47195 7.62327 7.83941 6.95522 7.86807 6.22153L7.98546 3.19039C8.00751 2.60352 7.80664 2.02725 7.42108 1.57133C7.03552 1.1154 6.49221 0.811649 5.89459 0.717909L3.78977 0.385266C2.41495 0.167991 1.09589 1.09711 0.970203 2.44477C0.0214906 12.6299 7.05867 21.9956 17.3379 24.2615C18.6996 24.5614 20.0187 23.6323 20.2295 22.2981L20.5524 20.2555C20.753 19.0649 19.9869 17.9152 18.7805 17.5793Z" fill="white"/>
</svg>
