<svg width="21" height="29" viewBox="0 0 21 29" fill="none" xmlns="http://www.w3.org/2000/svg">
<path d="M10.15 29C10.15 29 0 15.7615 0 10.15C-1.9862e-08 8.81708 0.262538 7.49722 0.772623 6.26576C1.28271 5.03431 2.03035 3.91538 2.97287 2.97287C3.91538 2.03035 5.03431 1.28271 6.26576 0.772623C7.49722 0.262538 8.81708 0 10.15 0C11.4829 0 12.8028 0.262538 14.0342 0.772623C15.2657 1.28271 16.3846 2.03035 17.3271 2.97287C18.2696 3.91538 19.0173 5.03431 19.5274 6.26576C20.0375 7.49722 20.3 8.81708 20.3 10.15C20.3 15.7615 10.15 29 10.15 29ZM10.15 13.05C10.9191 13.05 11.6568 12.7445 12.2006 12.2006C12.7445 11.6568 13.05 10.9191 13.05 10.15C13.05 9.38087 12.7445 8.64325 12.2006 8.09939C11.6568 7.55553 10.9191 7.25 10.15 7.25C9.38087 7.25 8.64325 7.55553 8.09939 8.09939C7.55553 8.64325 7.25 9.38087 7.25 10.15C7.25 10.9191 7.55553 11.6568 8.09939 12.2006C8.64325 12.7445 9.38087 13.05 10.15 13.05Z" fill="white"/>
</svg>
