<svg width="26" height="20" viewBox="0 0 26 20" fill="none" xmlns="http://www.w3.org/2000/svg">
<path d="M2.27437 20C1.62602 20 1.08511 19.78 0.65163 19.34C0.218148 18.9 0.000938272 18.3505 0 17.6914V2.30857C0 1.65048 0.21721 1.10143 0.65163 0.661428C1.08605 0.221428 1.62649 0.000952381 2.27296 0H23.0604C23.7078 0 24.2482 0.220476 24.6817 0.661428C25.1152 1.10238 25.3324 1.65143 25.3333 2.30857V17.6929C25.3333 18.35 25.1161 18.899 24.6817 19.34C24.2473 19.781 23.7068 20.0009 23.0604 20H2.27437ZM12.6667 10.1657L23.9259 2.69286L23.4924 1.42857L12.6667 8.57143L1.84089 1.42857L1.40741 2.69286L12.6667 10.1657Z" fill="white"/>
</svg>
